<svg width="24" height="24" viewBox="0 0 24 24" fill="none" xmlns="http://www.w3.org/2000/svg">
<g id="Logo / Amity" clip-path="url(#clip0_2784_2818)">
<path id="Vector" d="M11.4076 0.245262L8.18684 3.41323C7.85439 3.74024 7.85439 4.25121 8.18684 4.57824L8.76866 5.1505C9.10114 5.47753 9.62062 5.47753 9.95308 5.1505L12.0102 3.1271L14.0674 5.1505C14.3998 5.47753 14.9193 5.47753 15.2518 5.1505L15.8336 4.57824C16.166 4.25121 16.166 3.74024 15.8336 3.41323L12.592 0.245262C12.2596 -0.0817541 11.7401 -0.0817541 11.4076 0.245262Z" fill="#03A67A"/>
<path id="Vector_2" d="M21.4024 12.3857C21.07 12.0587 21.07 11.5477 21.4024 11.2207L21.9842 10.6485C22.3168 10.3214 22.8362 10.3214 23.1688 10.6485L23.7506 11.2207C24.083 11.5477 24.083 12.0587 23.7506 12.3857L23.1688 12.958C22.8362 13.285 22.3168 13.285 21.9842 12.958L21.4024 12.3857Z" fill="#03A67A"/>
<path id="Vector_3" d="M0.24935 17.5771C-0.0831167 17.2501 -0.0831167 16.7392 0.24935 16.4121L0.831166 15.8399C1.16363 15.5129 1.68311 15.5129 2.01558 15.8399L2.5974 16.4121C2.92986 16.7392 2.92986 17.2501 2.5974 17.5771L2.01558 18.1494C1.68311 18.4764 1.16363 18.4764 0.831166 18.1494L0.24935 17.5771Z" fill="#03A67A"/>
<path id="Vector_4" d="M16.1036 7.17394C15.7711 6.84693 15.7711 6.33597 16.1036 6.00896L16.6854 5.43668C17.0179 5.10965 17.5373 5.10965 17.8698 5.43668L18.4516 6.00896C18.7841 6.33597 18.7841 6.84693 18.4516 7.17394L17.8698 7.76667C17.5373 8.09367 17.0179 8.09367 16.6854 7.76667L16.1036 7.17394Z" fill="#03A67A"/>
<path id="Vector_5" d="M0.831137 22.2167C0.498671 21.8896 0.498671 21.3787 0.831137 21.0517L3.47009 18.456C3.80255 18.1289 4.32203 18.1289 4.65451 18.456L5.23631 19.0282C5.56879 19.3552 5.56879 19.8663 5.23631 20.1932L2.59737 22.789C2.26489 23.1159 1.74542 23.1159 1.41295 22.789L0.831137 22.2167Z" fill="#03A67A"/>
<path id="Vector_6" d="M18.7635 9.76964C18.431 9.44263 18.431 8.93167 18.7635 8.60466L19.3453 8.03238C19.6778 7.70535 20.1973 7.70535 20.5297 8.03238L21.1115 8.60466C21.4441 8.93167 21.4441 9.44263 21.1115 9.76964L20.5297 10.3419C20.1973 10.6689 19.6778 10.6689 19.3453 10.3419L18.7635 9.76964Z" fill="#03A67A"/>
<path id="Vector_7" d="M5.23641 23.0751C4.90395 22.7481 4.90395 22.2372 5.23641 21.9101L8.76887 18.4356C9.10133 18.1086 9.62081 18.1086 9.95329 18.4356L10.5351 19.0078C10.8676 19.3349 10.8676 19.8459 10.5351 20.1728L7.00265 23.6473C6.67017 23.9745 6.15069 23.9745 5.81823 23.6473L5.23641 23.0751Z" fill="#03A67A"/>
<path id="Vector_8" d="M7.29348 18.1698C6.96102 18.4968 6.44154 18.4968 6.10908 18.1698L0.24935 12.3857C-0.0831167 12.0587 -0.0831167 11.5477 0.24935 11.2207L0.831166 10.6485C1.16363 10.3214 1.68311 10.3214 2.01558 10.6485L7.89608 16.4326C8.22854 16.7596 8.22854 17.2705 7.89608 17.5976L7.29348 18.1698Z" fill="#04BE8C"/>
<path id="Vector_9" d="M18.161 23.6473C17.8285 23.9744 17.309 23.9744 16.9765 23.6473L2.88828 9.76963C2.5558 9.44262 2.5558 8.93166 2.88828 8.60465L3.4701 8.03237C3.80256 7.70536 4.32204 7.70536 4.6545 8.03237L18.7636 21.91C19.096 22.2372 19.096 22.7481 18.7636 23.075L18.161 23.6473Z" fill="#04BE8C"/>
<path id="Vector_10" d="M22.5868 22.789C22.2544 23.116 21.735 23.116 21.4024 22.789L5.52718 7.17394C5.19472 6.84693 5.19472 6.33597 5.52718 6.00896L6.109 5.43668C6.44146 5.10965 6.96094 5.10965 7.2934 5.43668L23.1686 21.0518C23.5012 21.3787 23.5012 21.8896 23.1686 22.2167L22.5868 22.789Z" fill="#04BE8C"/>
<path id="Vector_11" d="M23.1688 18.1699C22.8364 18.4969 22.3168 18.4969 21.9844 18.1699L10.826 7.17394C10.4935 6.84693 10.4935 6.33597 10.826 6.00896L11.4078 5.43668C11.7403 5.10965 12.2598 5.10965 12.5922 5.43668L23.7506 16.4121C24.0832 16.7392 24.0832 17.2501 23.7506 17.5772L23.1688 18.1699Z" fill="#04BE8C"/>
</g>
<defs>
<clipPath id="clip0_2784_2818">
<rect width="24" height="24" fill="white"/>
</clipPath>
</defs>
</svg>
